<svg width="95" height="93" viewBox="0 0 95 93" fill="none" xmlns="http://www.w3.org/2000/svg">
<path d="M47.3755 92.5504C73.5403 92.5504 94.751 71.9759 94.751 46.596C94.751 21.216 73.5403 0.641602 47.3755 0.641602C21.2107 0.641602 0 21.216 0 46.596C0 71.9759 21.2107 92.5504 47.3755 92.5504Z" fill="#CED8DE"/>
<path d="M41.901 35.1545C32.6745 28.2671 32.3218 20.0431 39.5433 19.6161C46.7648 19.1892 54.8589 27.4319 54.8589 27.4319C54.8589 27.4319 43.9617 39.7955 64.1596 62.2769C64.1596 62.2769 65.0136 70.4082 58.5532 75.8289C52.0928 81.2497 49.271 63.3724 49.271 63.3724" fill="#CED8DE"/>
<path d="M56.1794 78.447C55.6225 78.447 55.1213 78.3355 54.6943 78.1684C49.9232 76.3863 48.0111 65.7304 47.677 63.6141L50.8143 63.1128C51.5012 67.494 53.5619 74.3442 55.8081 75.1796C55.9938 75.2539 56.495 75.4394 57.4975 74.604C62.3985 70.5013 62.6212 64.6165 62.5656 62.9086C45.5049 43.676 50.3874 31.4421 52.7265 27.6178C50.4802 25.5943 44.7067 20.8603 39.6015 21.1758C38.302 21.2501 36.6683 21.6773 36.2042 23.2181C35.5359 25.4644 37.3181 29.7341 42.8317 33.8554L40.9195 36.4173C34.9604 31.9804 31.9159 26.4483 33.1597 22.3271C33.9208 19.7837 36.2042 18.2056 39.4158 18.02C47.25 17.5373 55.6039 25.9469 55.9567 26.2996L56.9963 27.3579L56.0124 28.4717C55.6225 28.9358 46.4146 40.1858 65.3131 61.2006L65.6658 61.5904L65.7215 62.1103C65.7586 62.4815 66.5754 71.1512 59.5396 77.0546C58.2772 78.1128 57.1262 78.447 56.1609 78.447H56.1794Z" fill="#3C332D"/>
<path d="M15.0763 69.4061C14.2409 69.4061 13.424 69.1647 12.6072 68.6821C10.0082 67.0855 8.56019 65.0804 8.26316 62.7228C7.96613 60.328 9.02428 58.156 9.93393 56.7823C7.57627 55.0372 5.03296 51.8441 6.36959 47.6486C6.96365 45.7364 8.11463 43.1189 10.9735 42.3206C14.7235 41.2996 20.2372 43.8057 28.4611 50.4332C28.6097 50.1919 28.7582 49.9691 28.9067 49.7463C33.1765 43.0075 37.2235 36.6401 40.9549 33.874C48.8262 28.0262 67.2791 14.3071 83.7828 34.7093C89.0922 41.2625 88.331 48.6697 81.6665 55.0002C70.138 65.9717 45.5589 69.7216 32.3039 57.8961C31.2272 56.9307 30.1876 56.0212 29.2037 55.1858C24.247 62.8714 19.4946 69.3875 15.0763 69.3875V69.4061ZM13.4426 57.4877C13.4426 57.4877 11.1406 59.9011 11.4376 62.3516C11.6047 63.6882 12.5701 64.9134 14.278 65.9715C16.9512 67.6052 22.2235 60.1425 26.7346 53.1623C17.8609 45.9965 13.7582 44.9011 11.8275 45.4209C10.7508 45.718 10.0268 46.6833 9.41413 48.6325C8.18889 52.5125 12.7929 54.8516 12.9971 54.9444L14.9649 55.9284L13.424 57.4877H13.4426ZM30.9488 52.494C32.0626 53.4408 33.2321 54.4431 34.4388 55.5384C47.044 66.7884 70.0823 61.6648 79.4759 52.7168C82.5947 49.7465 86.9759 43.7315 81.3137 36.7327C66.7222 18.7068 50.6084 30.6995 42.8485 36.4544C39.5997 38.8678 35.5341 45.2724 31.5985 51.4729C31.3757 51.8256 31.153 52.1597 30.9488 52.5124V52.494Z" fill="#3C332D"/>
<path d="M69.0993 44.2326C71.3139 44.2326 73.1091 42.4372 73.1091 40.2226C73.1091 38.008 71.3139 36.2129 69.0993 36.2129C66.8847 36.2129 65.0894 38.008 65.0894 40.2226C65.0894 42.4372 66.8847 44.2326 69.0993 44.2326Z" fill="#3C332D"/>
</svg>
