<svg width="95" height="92" viewBox="0 0 95 92" fill="none" xmlns="http://www.w3.org/2000/svg">
<path d="M47.3755 91.9088C73.5403 91.9088 94.751 71.3343 94.751 45.9543C94.751 20.5744 73.5403 0 47.3755 0C21.2107 0 0 20.5744 0 45.9543C0 71.3343 21.2107 91.9088 47.3755 91.9088Z" fill="#EEAF92"/>
<path d="M56.0445 47.7427C51.9225 47.7427 48.348 45.6623 47.3594 42.3131C46.0969 38.0639 49.4736 33.3721 54.8885 31.8525C60.3034 30.3328 65.7487 32.5459 67.0264 36.7951C67.65 38.9049 67.1785 41.177 65.6879 43.1835C64.2581 45.0868 62.0678 46.5327 59.4972 47.2557C58.3412 47.5803 57.17 47.7427 56.0597 47.7427H56.0445ZM55.6186 34.2869C51.5726 35.423 49.0021 38.7131 49.8691 41.6197C50.736 44.5263 54.7364 45.9721 58.7671 44.836C60.7749 44.2753 62.4937 43.154 63.5736 41.7081C64.5927 40.3507 64.9273 38.8606 64.5167 37.5032C63.6497 34.5967 59.6493 33.1509 55.6186 34.2869Z" fill="#3C332F"/>
<path d="M19.7659 58.6019C19.3552 58.6019 18.9445 58.5723 18.5186 58.5132C15.872 58.1296 13.5753 56.61 12.2519 54.3231C10.8374 51.9035 10.6701 48.9083 11.7804 46.3116C12.7995 43.8624 14.4575 41.3395 16.6934 38.8165C19.8571 35.246 23.0817 32.6199 27.4623 30.0527C30.2306 28.5625 30.474 28.5034 30.6261 28.4591C42.764 23.3837 51.6773 20.9788 56.864 21.3034C65.5643 21.8493 73.1391 25.7739 76.6223 31.5133C78.9343 35.3199 79.1928 39.4805 77.3676 43.2575C72.8653 52.6412 66.1575 58.3216 48.1028 55.5035L44.6044 54.8838C34.4135 52.7887 29.7135 55.0019 25.9413 56.7724C23.9487 57.7166 22.0474 58.6019 19.7811 58.6019H19.7659ZM18.8989 56.0199C20.9523 56.315 22.5646 55.5477 24.8005 54.5002C28.7096 52.6559 34.0636 50.1329 45.1216 52.405L48.5591 53.01C66.8116 55.8575 71.6333 49.2182 75.01 42.1805C76.4702 39.1854 76.242 35.851 74.3864 32.7969C71.3291 27.7657 64.5452 24.3279 56.6967 23.8263C53.3808 23.605 46.3536 24.6378 31.5235 30.8345C31.2193 30.9525 29.896 31.6461 28.7856 32.2362C24.694 34.6264 21.6672 37.105 18.6859 40.4542C16.6325 42.7706 15.1267 45.0575 14.1989 47.2558C13.3775 49.1591 13.5144 51.3281 14.5183 53.0691C15.4613 54.692 17.0128 55.7248 18.8989 55.9903V56.0199Z" fill="#3C332F"/>
<path d="M54.8697 67.5718C51.2496 67.5718 48.4965 66.8636 45.7891 66.1702C43.4011 65.5653 41.1651 64.9899 38.3664 64.9309C36.9367 64.8866 34.4574 65.3882 31.8412 65.9193C26.5328 66.9816 21.0418 68.0734 18.3039 66.3029C15.1858 64.3111 12.0069 54.0423 11.3984 52.0063L13.9081 51.2979C15.3075 55.9897 18.0454 63.1014 19.7641 64.1932C21.5894 65.3735 27.2172 64.2522 31.324 63.4259C34.1988 62.8505 36.6629 62.393 38.4273 62.393C41.5302 62.4521 44.0247 63.1013 46.4584 63.7209C51.2801 64.9603 55.8279 66.111 65.3344 63.2783C69.6237 61.9504 72.027 61.021 74.0348 59.3686C74.1717 59.2653 74.4759 58.985 74.8257 58.6604C75.6927 57.8637 76.1186 57.4652 76.3772 57.2734C79.4801 54.0422 79.5409 51.062 79.5105 50.5013C79.5105 48.5538 77.3506 40.6308 75.9057 35.7767L78.4154 35.0684C78.7956 36.3372 82.1115 47.5652 82.1267 50.4422C82.1723 51.4603 82.005 55.193 78.2024 59.0881L78.0047 59.2504C77.7917 59.4127 77.1529 60.003 76.6205 60.4899C76.1794 60.903 75.7992 61.2423 75.6927 61.3308C73.3807 63.2341 70.7645 64.2668 66.1254 65.7127C61.471 67.0996 57.8814 67.5865 54.8697 67.5865V67.5718Z" fill="#3C332F"/>
</svg>
