<svg width="95" height="93" viewBox="0 0 95 93" fill="none" xmlns="http://www.w3.org/2000/svg">
<path d="M47.3755 92.5504C73.5403 92.5504 94.751 71.9759 94.751 46.596C94.751 21.216 73.5403 0.641602 47.3755 0.641602C21.2107 0.641602 0 21.216 0 46.596C0 71.9759 21.2107 92.5504 47.3755 92.5504Z" fill="#80885D"/>
<path d="M27.6178 34.1648L16.1766 26.0751C15.5218 25.6071 15.3667 24.7046 15.8492 24.0695C16.3316 23.4344 17.2449 23.2838 17.9169 23.7518L26.36 29.7355L24.2406 17.6347C24.1027 16.8491 24.6541 16.1137 25.4467 15.98C26.2394 15.8463 27.0147 16.381 27.1526 17.1499L29.5649 30.9724L27.6006 34.1648H27.6178Z" fill="white"/>
<path d="M11.4879 38.3931C10.8331 38.3931 10.2473 37.9752 10.0577 37.3401C9.83373 36.5712 10.299 35.7858 11.0916 35.5852L26.2547 31.5571L27.1162 32.1755C27.771 32.6435 27.9088 33.5462 27.4264 34.1813C27.0301 34.6995 26.3236 34.8999 25.7205 34.6826L11.867 38.3598C11.7291 38.3932 11.6085 38.4098 11.4707 38.4098L11.4879 38.3931Z" fill="white"/>
<path d="M26.2368 33.3125C26.2368 33.3125 32.7673 19.2226 45.07 24.922C59.5611 31.6243 78.7218 60.7233 80.2726 66.6734C81.8061 72.6236 50.2393 68.6959 30.9235 55.074C16.4324 44.8618 26.254 33.3125 26.254 33.3125H26.2368Z" fill="#80885E"/>
<path d="M73.7955 70.7685C63.0262 70.7685 43.2453 65.5371 30.0465 56.2274C25.0495 52.7175 22.2237 48.6226 21.6378 44.0931C20.8624 38.1262 24.2569 33.463 24.9806 32.5604C25.5492 31.4072 28.9092 25.0727 35.0951 22.8832C38.4723 21.6798 42.0391 21.9304 45.7265 23.6352C60.3382 30.4044 79.9985 59.704 81.7216 66.3395C82.049 67.6097 81.5665 68.7796 80.3776 69.5484C79.1025 70.3841 76.8108 70.7852 73.8299 70.7852L73.7955 70.7685ZM27.3929 34.2318C27.3929 34.2318 23.8606 38.494 24.567 43.7756C25.0667 47.4861 27.4963 50.8957 31.7868 53.9209C47.3462 64.8853 70.0391 69.0637 77.2072 67.6765C78.6029 67.409 78.8613 67.0413 78.8613 67.0413C77.4829 61.8266 58.7013 32.828 44.4342 26.226C41.5222 24.8722 38.7135 24.6549 36.1117 25.5741C30.6323 27.5129 27.6169 33.8475 27.5824 33.9144L27.3757 34.2318H27.3929Z" fill="white"/>
<path d="M30.9077 56.5111C30.6148 56.5111 30.3047 56.4275 30.0462 56.2269C29.3914 55.7589 29.2363 54.8564 29.7188 54.2213L38.0585 43.1232C38.541 42.4881 39.4542 42.3375 40.1262 42.8055C40.781 43.2735 40.9361 44.1762 40.4536 44.8113L32.1139 55.9094C31.821 56.2938 31.373 56.4944 30.925 56.4944L30.9077 56.5111Z" fill="white"/>
<path d="M52.377 49.3572C52.0841 49.3572 51.7739 49.2735 51.5154 49.073C50.8607 48.605 50.7056 47.7025 51.188 47.0674L59.097 36.5542C59.5795 35.9191 60.4927 35.7688 61.1647 36.2368C61.8195 36.7047 61.9745 37.6072 61.4921 38.2423L53.5831 48.7555C53.2902 49.1399 52.8422 49.3404 52.3942 49.3404L52.377 49.3572Z" fill="white"/>
<path d="M58.0108 68.4117C57.7178 68.4117 57.4077 68.3281 57.1492 68.1275C56.4945 67.6595 56.3394 66.757 56.8218 66.1219L61.5948 59.7705C62.0772 59.1354 63.0077 58.9851 63.6625 59.4531C64.3172 59.9211 64.4723 60.8235 63.9899 61.4587L59.2169 67.81C58.924 68.1945 58.476 68.395 58.028 68.395L58.0108 68.4117Z" fill="white"/>
</svg>
